<svg xmlns="http://www.w3.org/2000/svg" viewBox="0 0 300 146.4"><path d="m294.72 81.83c-1.92-1.43-2.22-1.67-13.74-5.47 10-2.46 10.39-2.71 12.17-3.89 3.99-2.71 6.16-7.24 5.81-12.12l0-0.49C298.17 52.03 288.07 37.25 281.28 33.95c-4.48-2.12-9.46-1.82-13.4 0.79-1.82 1.23-2.07 1.38-9.66 11.72-0.74-12.12-2.17-33.4-2.51-35.42l-0.05-0.44-0.1-0.44C254.28 5.48 250.59 1.93 245.71 0.75 237.58-1.27 216.1 4.79 210.34 10.7c-3.4 3.55-4.68 8.28-3.5 12.76l0.25 0.89 0.39 0.84c0.54 1.13 2.02 3.55 14.48 23.1l4.58 7.24c-11.18-4.58-11.63-4.58-13.89-4.58-4.38-0.2-8.82 2.17-11.48 6.31l-0.05 0.1c-1.38 2.22-2.22 5.22-2.76 8.33-3.6-4.83-9.01-8.72-17.19-10.34-5.81-1.18-11.28-0.44-16.4 1.63-4.73-3-11.18-3.35-16.6-0.25-1.67 0.94-2.91 2.07-3.89 3.3l0-6.65-0.49-3.94-0.15-0.69c-1.08-4.29-4.33-7.88-8.62-9.66l-0.05 0c-4.73-1.92-10.05-1.48-14.58 1.23-4.83 2.86-7.29 7.54-7.29 13.99l0 13.55c-1.72-2.66-3.84-4.98-6.35-6.9-6.75-5.12-15.81-6.85-26.21-4.98-6.01 1.03-11.03 3.65-15.02 7.54-0.05-0.15-0.15-0.3-0.2-0.39-2.02-3.65-5.32-6.11-9.51-7.24-7.04-1.92-15.96 0.44-19.61 13 0 0-0.59 2.02-1.43 4.78-1.63-2.96-5.76-11.03-5.96-11.28C25.07 56.66 17.53 54.2 10.79 56.86 4.28 59.32 0.49 65.03 0.49 71.78c0 2.12 0.39 4.33 1.13 6.6l0.2 0.54c0 0 13.4 27.24 17.24 35.12-6.21 1.63-10.64 6.26-11.38 12.66-0.05 0.59-0.1 1.23-0.1 1.82 0 4.04 1.67 7.93 4.78 10.74 4.68 4.33 11.97 5.76 20.49 3.99 9.26-1.82 14.63-7.44 18.37-19.26l5.71-17.88c1.87 7.54 5.22 12.46 8.42 15.62 4.58 4.53 13 9.56 26.95 7.68 10.34-1.43 17.54-6.11 21.38-11.53l0.25 1.33c1.08 3.89 4.09 7.34 8.13 9.16 4.24 1.97 9.11 1.92 13.35-0.1 2.22-0.99 4.14-2.51 5.62-4.43l0 5.62c0 9.31 5.37 13.25 8.62 14.83 4.19 2.12 9.21 2.27 13.6 0.39 4.14-1.77 7.19-5.17 8.37-9.31l0.2-0.64 0.54-3.84c0 0 0-1.48 0-1.67 5.62 0.59 11.43-0.34 16.6-3 2.27-1.18 4.29-2.61 6.06-4.24l3.79 0c2.07 1.08 4.38 1.77 6.9 1.77 2.51 0 4.88-0.69 6.9-1.77l10.99 0c7.29 4.09 17.88 7.19 23.6 6.21 4.88-0.89 8.77-4.04 10.39-8.42l0.1-0.25c0.69-2.02 0.79-2.36 0.84-13.74 6.21 10.05 6.55 10.34 8.33 11.72 3.74 2.91 8.72 3.6 13.25 1.72 7.34-2.96 18.52-17.19 19.66-24.98 0.1-0.69 0.15-1.38 0.15-2.07-0.25-4.04-2.02-7.83-5.17-10.34zM181.08 55.33c0 0 0.05 0 0.05 0 0 0 0 0 0.05 0l-0.1 0zm98.82 63.94 0 0c0 0 0 0-0.05 0l0.05 0" fill="#fff"/><path d="m294.72 81.83c-1.92-1.43-2.22-1.67-13.74-5.47 10-2.46 10.39-2.71 12.17-3.89 3.99-2.71 6.16-7.24 5.81-12.12l0-0.49C298.17 52.03 288.07 37.25 281.28 33.95c-4.48-2.12-9.46-1.82-13.4 0.79-1.82 1.23-2.07 1.38-9.66 11.72-0.74-12.12-2.17-33.4-2.51-35.42l-0.05-0.44-0.1-0.44C254.28 5.48 250.59 1.93 245.71 0.75 237.58-1.27 216.1 4.79 210.34 10.7c-3.4 3.55-4.68 8.28-3.5 12.76l0.25 0.89 0.39 0.84c0.54 1.13 2.02 3.55 14.48 23.1l4.58 7.24c-11.18-4.58-11.63-4.58-13.89-4.58-4.38-0.2-8.82 2.17-11.48 6.31l-0.05 0.1c-1.38 2.22-2.22 5.22-2.76 8.33-3.6-4.83-9.01-8.72-17.19-10.34-5.81-1.18-11.28-0.44-16.4 1.63-4.73-3-11.18-3.35-16.6-0.25-1.67 0.94-2.91 2.07-3.89 3.3l0-6.65-0.49-3.94-0.15-0.69c-1.08-4.29-4.33-7.88-8.62-9.66l-0.05 0c-4.73-1.92-10.05-1.48-14.58 1.23-4.83 2.86-7.29 7.54-7.29 13.99l0 13.55c-1.72-2.66-3.84-4.98-6.35-6.9-6.75-5.12-15.81-6.85-26.21-4.98-6.01 1.03-11.03 3.65-15.02 7.54-0.05-0.15-0.15-0.3-0.2-0.39-2.02-3.65-5.32-6.11-9.51-7.24-7.04-1.92-15.96 0.44-19.61 13 0 0-0.59 2.02-1.43 4.78-1.63-2.96-5.76-11.03-5.96-11.28C25.07 56.66 17.53 54.2 10.79 56.86 4.28 59.32 0.49 65.03 0.49 71.78c0 2.12 0.39 4.33 1.13 6.6l0.2 0.54c0 0 13.4 27.24 17.24 35.12-6.21 1.63-10.64 6.26-11.38 12.66-0.05 0.59-0.1 1.23-0.1 1.82 0 4.04 1.67 7.93 4.78 10.74 4.68 4.33 11.97 5.76 20.49 3.99 9.26-1.82 14.63-7.44 18.37-19.26l5.71-17.88c1.87 7.54 5.22 12.46 8.42 15.62 4.58 4.53 13 9.56 26.95 7.68 10.34-1.43 17.54-6.11 21.38-11.53l0.25 1.33c1.08 3.89 4.09 7.34 8.13 9.16 4.24 1.97 9.11 1.92 13.35-0.1 2.22-0.99 4.14-2.51 5.62-4.43l0 5.62c0 9.31 5.37 13.25 8.62 14.83 4.19 2.12 9.21 2.27 13.6 0.39 4.14-1.77 7.19-5.17 8.37-9.31l0.2-0.64 0.54-3.84c0 0 0-1.48 0-1.67 5.62 0.59 11.43-0.34 16.6-3 2.27-1.18 4.29-2.61 6.06-4.24l3.79 0c2.07 1.08 4.38 1.77 6.9 1.77 2.51 0 4.88-0.69 6.9-1.77l10.99 0c7.29 4.09 17.88 7.19 23.6 6.21 4.88-0.89 8.77-4.04 10.39-8.42l0.1-0.25c0.69-2.02 0.79-2.36 0.84-13.74 6.21 10.05 6.55 10.34 8.33 11.72 3.74 2.91 8.72 3.6 13.25 1.72 7.34-2.96 18.52-17.19 19.66-24.98 0.1-0.69 0.15-1.38 0.15-2.07-0.25-4.04-2.02-7.83-5.17-10.34z" style="fill:none;stroke-linecap:round;stroke-linejoin:round;stroke-width:0.7;stroke:#bdbcbc"/><path d="m207.59 66.06c-1.77 2.86-2.51 11.77-1.92 17.73 0.2 1.97 0.54 3.6 1.08 4.58 0.69 1.38 1.92 2.17 3.25 2.22 0.89 0.05 1.43-0.1 17.78-5.37 0 0 7.29-2.32 7.34-2.32 1.82-0.49 3.05-2.12 3.15-4.29 0.1-2.22-1.03-4.14-2.86-4.83 0 0-5.12-2.12-5.12-2.12-17.64-7.29-18.42-7.54-19.31-7.54-1.33-0.1-2.56 0.59-3.4 1.92M247 120.21 247 120.21 247 120.21 247 120.21 247 120.21 247 120.21 247 120.21c0.3-0.84 0.34-1.38 0.34-18.62 0 0 0.05-7.64 0.05-7.68 0.1-1.87-1.08-3.55-3.05-4.33-2.02-0.79-4.24-0.3-5.47 1.23 0 0-3.6 4.24-3.6 4.24-12.32 14.53-12.86 15.22-13.15 16.06-0.2 0.49-0.25 1.03-0.2 1.58 0.1 0.79 0.44 1.53 1.03 2.22 2.86 3.45 16.55 8.47 20.94 7.73 1.53-0.3 2.66-1.13 3.1-2.41M274.83 114.21c4.14-1.67 13.2-13.15 13.79-17.54 0.25-1.58-0.25-2.86-1.28-3.74-0.69-0.49-1.23-0.69-17.64-6.11 0 0-7.19-2.36-7.29-2.41-1.72-0.64-3.69-0.05-5.02 1.63-1.38 1.67-1.63 3.89-0.49 5.57l2.91 4.73c9.7 15.81 10.44 16.9 11.13 17.49 1.08 0.84 2.46 0.99 3.89 0.39M266.38 73.54c18.62-4.48 19.36-4.73 20.1-5.22 1.13-0.79 1.67-2.02 1.58-3.6 0-0.05 0-0.1 0-0.15-0.49-4.58-8.47-16.45-12.46-18.37-1.38-0.69-2.76-0.64-3.94 0.15-0.69 0.44-1.23 1.13-11.23 14.78 0 0-4.48 6.16-4.58 6.21-1.18 1.43-1.18 3.5-0.05 5.27 1.18 1.82 3.25 2.76 5.07 2.22 0 0-0.1 0.15-0.1 0.15 0.99-0.3 2.61-0.74 5.62-1.43M247.68 58.17c-0.34-7.39-2.51-40.25-2.81-41.77-0.39-1.38-1.48-2.36-3-2.76-4.73-1.18-22.91 3.89-26.26 7.39-1.08 1.13-1.48 2.51-1.13 3.74 0.54 1.08 23.05 36.5 23.05 36.5 3.35 5.42 6.06 4.53 6.95 4.29 0.79-0.25 3.5-1.08 3.2-7.39" fill="#e9e9e9"/><path d="m209.08 62.33c-1.77 2.86-2.51 11.77-1.92 17.73 0.2 1.97 0.59 3.6 1.08 4.58 0.69 1.33 1.92 2.17 3.25 2.22 0.89 0.05 1.43-0.1 17.83-5.37 0 0 7.29-2.32 7.34-2.36 1.82-0.44 3.05-2.12 3.15-4.29 0.1-2.17-0.99-4.14-2.86-4.83 0 0-5.12-2.12-5.12-2.12-17.68-7.24-18.47-7.49-19.36-7.54-1.33-0.05-2.56 0.64-3.4 1.97M248.49 116.47 248.49 116.47 248.49 116.47 248.49 116.47 248.49 116.47 248.49 116.47 248.49 116.47c0.3-0.84 0.34-1.38 0.39-18.62 0 0 0.05-7.64 0.05-7.68 0.1-1.87-1.08-3.55-3.05-4.33-2.02-0.79-4.24-0.3-5.47 1.23 0 0-3.6 4.29-3.6 4.29-12.36 14.48-12.91 15.17-13.2 16.01-0.2 0.49-0.25 1.03-0.2 1.58 0.1 0.79 0.44 1.53 0.99 2.27 2.91 3.4 16.6 8.42 20.99 7.68 1.53-0.3 2.66-1.13 3.1-2.41M276.33 110.48c4.14-1.67 13.15-13.15 13.79-17.54 0.25-1.58-0.25-2.86-1.33-3.74-0.69-0.49-1.18-0.69-17.59-6.11 0 0-7.19-2.36-7.29-2.41-1.72-0.64-3.69-0.05-5.07 1.63-1.38 1.67-1.58 3.89-0.44 5.62l2.86 4.68c9.75 15.81 10.49 16.9 11.18 17.49 1.08 0.84 2.46 0.99 3.89 0.39M267.86 69.82c18.62-4.53 19.36-4.73 20.1-5.22 1.13-0.74 1.67-2.02 1.58-3.6 0-0.05 0-0.1 0-0.15-0.49-4.58-8.47-16.45-12.41-18.37-1.43-0.69-2.81-0.64-3.99 0.15-0.69 0.44-1.23 1.18-11.23 14.78 0 0-4.48 6.16-4.53 6.21-1.18 1.43-1.18 3.5-0.05 5.27 1.18 1.82 3.25 2.76 5.07 2.22 0 0-0.05 0.15-0.1 0.15 0.94-0.3 2.56-0.74 5.57-1.43M249.17 54.44c-0.3-7.39-2.56-40.25-2.81-41.77-0.39-1.38-1.43-2.36-3-2.76-4.73-1.18-22.91 3.89-26.31 7.39-1.08 1.13-1.48 2.51-1.13 3.74 0.54 1.08 23.05 36.5 23.05 36.5 3.35 5.37 6.06 4.53 6.95 4.29 0.84-0.25 3.55-1.08 3.25-7.39" fill="#cf1200"/><path d="m18.62 132.32c2.36 2.17 6.8 2.81 12.17 1.67 5.07-0.99 8.23-3.25 11.23-12.86L57.05 73.9c0.79-2.51 0.74-4.68-0.15-6.31-0.74-1.28-1.92-2.17-3.65-2.61-2.66-0.74-6.01-0.69-8.13 6.5l-7.88 26.8c0 0-16.06-30.34-16.06-30.39-1.03-2.02-3.99-3.5-7-2.27-3.94 1.48-5.27 5.07-3.69 9.61 0 0 19.56 39.8 19.61 39.9 0 0 0.54 1.43 0.54 1.63 0 0 0.2 1.08 0.2 1.13-0.15 1.58-0.64 2.91-1.58 3.74-0.89 0.84-2.12 1.28-3.6 1.23 0 0-3.05-0.05-3.3-0.05-3.1 0.34-5.07 2.17-5.42 4.93-0.2 1.82 0.39 3.4 1.67 4.58M95.66 87.52l-20.94 0M95.66 87.52l-20.94 0M95.66 87.52l-20.94 0M95.66 87.52l-20.94 0M95.66 87.52l-20.94 0M95.66 87.52l-20.94 0M95.66 87.52l-20.94 0c-0.54-0.39-0.84-1.13-0.39-3.2 0.25-1.08 0.54-2.07 1.38-3.45 0.3-0.39 0.54-0.84 0.84-1.28 1.53-1.92 3.6-3.2 5.96-3.74 7.34-1.77 12.46 1.97 13.3 8.33 0.39 2.81 0.15 3.35-0.15 3.35zm12.86-3.65c-0.64-6.85-3.3-12.17-7.64-15.42-4.58-3.5-11.08-4.63-18.82-3.25-9.66 1.67-15.47 8.57-16.8 20-1.63 13.65 0.59 23.94 6.5 29.75 4.43 4.38 11.03 6.16 19.06 5.07 11.43-1.63 16.55-7.88 16.55-11.82 0-2.91-1.77-5.22-4.33-5.57-1.48-0.3-2.76 0-5.52 2.46-3.99 3.5-8.62 4.88-12.71 3.84-3.1-0.79-5.57-2.96-6.65-5.91 0 0-0.49-1.97-0.44-1.72-0.34-1.77-0.49-3.5 0.59-4.24l0.3-0.2 25.07 0c2.32 0 3.5-0.3 4.19-1.03 1.38-1.53 1.28-5.91 0.69-12.02M131.28 47.77c-1.97-0.79-4.24-0.59-6.21 0.59-1.87 1.13-2.66 2.81-2.66 5.91l0 59.85c0 0 0.34 2.12 0.34 2.22 0.44 1.48 1.53 2.76 3.05 3.45 1.72 0.79 3.65 0.79 5.42-0.05 2.17-0.94 3.45-3.15 3.45-5.81l0-59.95c0 0-0.39-2.91-0.39-2.96-0.3-1.43-1.43-2.61-3-3.25M178.63 108.54c-8.28 0-9.61-7.34-9.85-12.91 0 0-0.1-3.25-0.1-3.25 0 0 0.1-2.41 0.1-2.51 0.54-9.61 2.51-13.4 7.59-14.43 3.4-0.79 5.96-0.39 7.93 1.18 2.96 2.36 4.24 7.34 4.09 15.66-0.05 9.75-1.77 16.26-9.75 16.26zm0.64-43.94c-5.57-1.13-10.3-0.2-14.88 2.91 0 0-0.49 0.39-0.69 0.54l-0.44 0.2-1.23 0.59-0.39-1.43-0.3-0.49-0.1-0.34 0-0.05c0 0-0.3-0.39-0.34-0.49-1.33-2.02-4.88-2.96-8.13-1.13-1.58 0.89-2.46 2.12-2.46 5.86l0 58.72c0 3.2 1.03 5.22 3.2 6.26 1.87 0.94 3.94 0.99 5.76 0.25 1.53-0.69 2.66-1.87 3.05-3.3l0.39-2.51 0-10.15-0.1-1.63 0.05-0.49 0.05-0.25 0.59-1.92 1.82 1.23c0 0 0.44 0.3 0.64 0.49l0.54 0.34c0 0 0.64 0.39 0.64 0.39 0 0 0.59 0.3 0.59 0.3 4.93 2.32 11.53 2.07 16.85-0.69 6.7-3.5 10-9.66 10.74-20.05 1.58-20.79-3.2-30.69-15.91-33.15M204.99 113.14l0.69 0c0.54 0 1.08-0.05 1.08-0.64 0-0.54-0.49-0.64-0.89-0.64l-0.89 0 0 1.28zm-0.54-1.77 1.48 0c0.99 0 1.43 0.34 1.43 1.13 0 0.74-0.44 1.03-1.03 1.08l1.18 1.77-0.59 0-1.08-1.72-0.69 0 0 1.72-0.54 0-0.15-3.99zm1.28 4.93c1.63 0 2.91-1.28 2.91-2.96 0-1.67-1.28-2.96-2.91-2.96-1.63 0-2.96 1.28-2.96 2.96 0 1.67 1.33 2.96 2.96 2.96zm0-6.4c1.87 0 3.5 1.48 3.5 3.45 0 1.97-1.58 3.45-3.5 3.45-1.87 0-3.5-1.48-3.5-3.45 0-1.97 1.58-3.5 3.5-3.5" fill="#231f20"/></svg>