<svg xmlns:svg="http://www.w3.org/2000/svg" xmlns="http://www.w3.org/2000/svg" version="1.1" viewBox="0 0 300 146.4"><style>.s0{fill:none;stroke-linecap:round;stroke-linejoin:round;stroke-width:0.14;stroke:#bdbcbc;}.s1{fill:#e9e9e9;}.s2{fill:#bf2519;}.s3{fill:#231f20;}</style><defs><clipPath><path d="m406.79 304-60.9 0 0-29.71 60.9 0L406.79 304Z"/></clipPath></defs><g transform="translate(-559.08003,-313.13162)"><g transform="matrix(3.9408543,0,0,3.9408543,-960.05773,-2371.0274)"><g transform="matrix(1.25,0,0,-1.25,-46.875,1061.1122)"><g clip-path="url(#clipPath1342)"><g transform="translate(405.717,287.389)"><path d="m0 0c-0.39 0.29-0.45 0.34-2.79 1.11 2.03 0.5 2.11 0.55 2.47 0.79 0.81 0.55 1.25 1.47 1.18 2.46L0.86 4.46c-0.16 1.59-2.21 4.59-3.59 5.26-0.91 0.43-1.92 0.37-2.72-0.16-0.37-0.25-0.42-0.28-1.96-2.38-0.15 2.46-0.44 6.78-0.51 7.19l-0.01 0.09-0.02 0.09c-0.26 0.95-1.01 1.67-2 1.91-1.65 0.41-6.01-0.82-7.18-2.02-0.69-0.72-0.95-1.68-0.71-2.59l0.05-0.18 0.08-0.17c0.11-0.23 0.41-0.72 2.94-4.69l0.93-1.47c-2.27 0.93-2.36 0.93-2.82 0.93-0.89 0.04-1.79-0.44-2.33-1.28l-0.01-0.02c-0.28-0.45-0.45-1.06-0.56-1.69-0.73 0.98-1.83 1.77-3.49 2.1-1.18 0.24-2.29 0.09-3.33-0.33-0.96 0.61-2.27 0.68-3.37 0.05-0.34-0.19-0.59-0.42-0.79-0.67l0 1.35-0.1 0.8-0.03 0.14c-0.22 0.87-0.88 1.6-1.75 1.96l-0.01 0c-0.96 0.39-2.04 0.3-2.96-0.25-0.98-0.58-1.48-1.53-1.48-2.84l0-2.75c-0.35 0.54-0.78 1.01-1.29 1.4-1.37 1.04-3.21 1.39-5.32 1.01-1.22-0.21-2.24-0.74-3.05-1.53-0.01 0.03-0.03 0.06-0.04 0.08-0.41 0.74-1.08 1.24-1.93 1.47-1.43 0.39-3.24-0.09-3.98-2.64 0 0-0.12-0.41-0.29-0.97-0.33 0.6-1.17 2.24-1.21 2.29-0.76 1.16-2.29 1.66-3.66 1.12-1.32-0.5-2.09-1.66-2.09-3.03 0-0.43 0.08-0.88 0.23-1.34l0.04-0.11c0 0 2.72-5.53 3.5-7.13-1.26-0.33-2.16-1.27-2.31-2.57-0.01-0.12-0.02-0.25-0.02-0.37 0-0.82 0.34-1.61 0.97-2.18 0.95-0.88 2.43-1.17 4.16-0.81 1.88 0.37 2.97 1.51 3.73 3.91l1.16 3.63c0.38-1.53 1.06-2.53 1.71-3.17 0.93-0.92 2.64-1.94 5.47-1.56 2.1 0.29 3.56 1.24 4.34 2.34l0.05-0.27c0.22-0.79 0.83-1.49 1.65-1.86 0.86-0.4 1.85-0.39 2.71 0.02 0.45 0.2 0.84 0.51 1.14 0.9l0-1.14c0-1.89 1.09-2.69 1.75-3.01 0.85-0.43 1.87-0.46 2.76-0.08 0.84 0.36 1.46 1.05 1.7 1.89l0.04 0.13 0.11 0.78c0 0 0 0.3 0 0.34 1.14-0.12 2.32 0.07 3.37 0.61 0.46 0.24 0.87 0.53 1.23 0.86l0.77 0c0.42-0.22 0.89-0.36 1.4-0.36 0.51 0 0.99 0.14 1.4 0.36l2.23 0c1.48-0.83 3.63-1.46 4.79-1.26 0.99 0.18 1.78 0.82 2.11 1.71l0.02 0.05c0.14 0.41 0.16 0.48 0.17 2.79 1.26-2.04 1.33-2.1 1.69-2.38 0.76-0.59 1.77-0.73 2.69-0.35 1.49 0.6 3.76 3.49 3.99 5.07 0.02 0.14 0.03 0.28 0.03 0.42C1-1.28 0.64-0.51 0 0zm-23.07 5.38c0 0 0.01 0 0.01 0 0 0 0 0 0.01 0L-23.07 5.38zm20.06-12.98 0 0c0 0 0 0-0.01 0l0.01 0" fill="#fff"/></g><g transform="translate(405.717,287.389)"><path d="m0 0c-0.39 0.29-0.45 0.34-2.79 1.11 2.03 0.5 2.11 0.55 2.47 0.79 0.81 0.55 1.25 1.47 1.18 2.46L0.86 4.46c-0.16 1.59-2.21 4.59-3.59 5.26-0.91 0.43-1.92 0.37-2.72-0.16-0.37-0.25-0.42-0.28-1.96-2.38-0.15 2.46-0.44 6.78-0.51 7.19l-0.01 0.09-0.02 0.09c-0.26 0.95-1.01 1.67-2 1.91-1.65 0.41-6.01-0.82-7.18-2.02-0.69-0.72-0.95-1.68-0.71-2.59l0.05-0.18 0.08-0.17c0.11-0.23 0.41-0.72 2.94-4.69l0.93-1.47c-2.27 0.93-2.36 0.93-2.82 0.93-0.89 0.04-1.79-0.44-2.33-1.28l-0.01-0.02c-0.28-0.45-0.45-1.06-0.56-1.69-0.73 0.98-1.83 1.77-3.49 2.1-1.18 0.24-2.29 0.09-3.33-0.33-0.96 0.61-2.27 0.68-3.37 0.05-0.34-0.19-0.59-0.42-0.79-0.67l0 1.35-0.1 0.8-0.03 0.14c-0.22 0.87-0.88 1.6-1.75 1.96l-0.01 0c-0.96 0.39-2.04 0.3-2.96-0.25-0.98-0.58-1.48-1.53-1.48-2.84l0-2.75c-0.35 0.54-0.78 1.01-1.29 1.4-1.37 1.04-3.21 1.39-5.32 1.01-1.22-0.21-2.24-0.74-3.05-1.53-0.01 0.03-0.03 0.06-0.04 0.08-0.41 0.74-1.08 1.24-1.93 1.47-1.43 0.39-3.24-0.09-3.98-2.64 0 0-0.12-0.41-0.29-0.97-0.33 0.6-1.17 2.24-1.21 2.29-0.76 1.16-2.29 1.66-3.66 1.12-1.32-0.5-2.09-1.66-2.09-3.03 0-0.43 0.08-0.88 0.23-1.34l0.04-0.11c0 0 2.72-5.53 3.5-7.13-1.26-0.33-2.16-1.27-2.31-2.57-0.01-0.12-0.02-0.25-0.02-0.37 0-0.82 0.34-1.61 0.97-2.18 0.95-0.88 2.43-1.17 4.16-0.81 1.88 0.37 2.97 1.51 3.73 3.91l1.16 3.63c0.38-1.53 1.06-2.53 1.71-3.17 0.93-0.92 2.64-1.94 5.47-1.56 2.1 0.29 3.56 1.24 4.34 2.34l0.05-0.27c0.22-0.79 0.83-1.49 1.65-1.86 0.86-0.4 1.85-0.39 2.71 0.02 0.45 0.2 0.84 0.51 1.14 0.9l0-1.14c0-1.89 1.09-2.69 1.75-3.01 0.85-0.43 1.87-0.46 2.76-0.08 0.84 0.36 1.46 1.05 1.7 1.89l0.04 0.13 0.11 0.78c0 0 0 0.3 0 0.34 1.14-0.12 2.32 0.07 3.37 0.61 0.46 0.24 0.87 0.53 1.23 0.86l0.77 0c0.42-0.22 0.89-0.36 1.4-0.36 0.51 0 0.99 0.14 1.4 0.36l2.23 0c1.48-0.83 3.63-1.46 4.79-1.26 0.99 0.18 1.78 0.82 2.11 1.71l0.02 0.05c0.14 0.41 0.16 0.48 0.17 2.79 1.26-2.04 1.33-2.1 1.69-2.38 0.76-0.59 1.77-0.73 2.69-0.35 1.49 0.6 3.76 3.49 3.99 5.07 0.02 0.14 0.03 0.28 0.03 0.42C1-1.28 0.64-0.51 0 0Z" class="s0"/><g transform="translate(-23.075,5.382)"><path d="M0 0C0 0 0.01 0 0.01 0 0.01 0 0.01 0 0.02 0L0 0Z" class="s0"/><g transform="translate(20.06,-12.978)"><path d="M0 0 0 0C0 0-0.01 0-0.01 0L0 0Z" class="s0"/></g></g></g></g></g><g transform="matrix(1.25,0,0,-1.25,438.16125,697.87345)"><path d="m0 0c-0.36-0.58-0.51-2.39-0.39-3.6 0.04-0.4 0.11-0.73 0.22-0.93 0.14-0.28 0.39-0.44 0.66-0.45 0.18-0.01 0.29 0.02 3.61 1.09 0 0 1.48 0.47 1.49 0.47 0.37 0.1 0.62 0.43 0.64 0.87 0.02 0.45-0.21 0.84-0.58 0.98 0 0-1.04 0.43-1.04 0.43C1.03 0.34 0.87 0.39 0.69 0.39 0.42 0.41 0.17 0.27 0 0" fill="#e9e9e9"/></g><g transform="matrix(1.25,0,0,-1.25,448.16,711.61345)"><path d="m0 0c0.06 0.17 0.07 0.28 0.07 3.78 0 0 0.01 1.55 0.01 1.56 0.02 0.38-0.22 0.72-0.62 0.88-0.41 0.16-0.86 0.06-1.11-0.25 0 0-0.73-0.86-0.73-0.86C-4.88 2.16-4.99 2.02-5.05 1.85-5.09 1.75-5.1 1.64-5.09 1.53-5.07 1.37-5 1.22-4.88 1.08-4.3 0.38-1.52-0.64-0.63-0.49-0.32-0.43-0.09-0.26 0 0" fill="#e9e9e9"/></g><g transform="matrix(1.25,0,0,-1.25,455.2225,710.0922)"><path d="M0 0C0.84 0.34 2.68 2.67 2.8 3.56 2.85 3.88 2.75 4.14 2.54 4.32 2.4 4.42 2.29 4.46-1.04 5.56c0 0-1.46 0.48-1.48 0.49C-2.87 6.18-3.27 6.06-3.54 5.72-3.82 5.38-3.87 4.93-3.64 4.59L-3.05 3.63C-1.08 0.42-0.93 0.2-0.79 0.08-0.57-0.09-0.29-0.12 0 0" fill="#e9e9e9"/></g><g transform="matrix(1.25,0,0,-1.25,453.07875,699.7722)"><path d="m0 0c3.78 0.91 3.93 0.96 4.08 1.06 0.23 0.16 0.34 0.41 0.32 0.73 0 0.01 0 0.02 0 0.03C4.3 2.75 2.68 5.16 1.87 5.55 1.59 5.69 1.31 5.68 1.07 5.52 0.93 5.43 0.82 5.29-1.21 2.52c0 0-0.91-1.25-0.93-1.26-0.24-0.29-0.24-0.71-0.01-1.07 0.24-0.37 0.66-0.56 1.03-0.45 0 0-0.02-0.03-0.02-0.03C-0.94-0.23-0.61-0.14 0 0" fill="#e9e9e9"/></g><g transform="matrix(1.25,0,0,-1.25,448.33375,695.87095)"><path d="m0 0c-0.07 1.5-0.51 8.17-0.57 8.48-0.08 0.28-0.3 0.48-0.61 0.56-0.96 0.24-4.65-0.79-5.33-1.5-0.22-0.23-0.3-0.51-0.23-0.76 0.11-0.22 4.68-7.41 4.68-7.41 0.68-1.1 1.23-0.92 1.41-0.87C-0.49-1.45 0.06-1.28 0 0" fill="#e9e9e9"/></g><g transform="matrix(1.25,0,0,-1.25,438.53875,696.92845)"><path d="m0 0c-0.36-0.58-0.51-2.39-0.39-3.6 0.04-0.4 0.12-0.73 0.22-0.93 0.14-0.27 0.39-0.44 0.66-0.45 0.18-0.01 0.29 0.02 3.62 1.09 0 0 1.48 0.47 1.49 0.48 0.37 0.09 0.62 0.43 0.64 0.87 0.02 0.44-0.2 0.84-0.58 0.98 0 0-1.04 0.43-1.04 0.43C1.03 0.34 0.87 0.39 0.69 0.4 0.42 0.41 0.17 0.27 0 0" fill="#bf2519"/></g><g transform="matrix(1.25,0,0,-1.25,448.53875,710.66595)"><path d="m0 0c0.06 0.17 0.07 0.28 0.08 3.78 0 0 0.01 1.55 0.01 1.56 0.02 0.38-0.22 0.72-0.62 0.88-0.41 0.16-0.86 0.06-1.11-0.25 0 0-0.73-0.87-0.73-0.87C-4.88 2.16-4.99 2.02-5.05 1.85-5.09 1.75-5.1 1.64-5.09 1.53-5.07 1.37-5 1.22-4.89 1.07-4.3 0.38-1.52-0.64-0.63-0.49-0.32-0.43-0.09-0.26 0 0" fill="#bf2519"/></g><g transform="matrix(1.25,0,0,-1.25,455.60375,709.1447)"><path d="M0 0C0.84 0.34 2.67 2.67 2.8 3.56 2.85 3.88 2.75 4.14 2.53 4.32 2.39 4.42 2.29 4.46-1.04 5.56c0 0-1.46 0.48-1.48 0.49C-2.87 6.18-3.27 6.06-3.55 5.72-3.83 5.38-3.87 4.93-3.64 4.58L-3.06 3.63C-1.08 0.42-0.93 0.2-0.79 0.08-0.57-0.09-0.29-0.12 0 0" fill="#bf2519"/></g><g transform="matrix(1.25,0,0,-1.25,453.455,698.8272)"><path d="m0 0c3.78 0.92 3.93 0.96 4.08 1.06 0.23 0.15 0.34 0.41 0.32 0.73 0 0.01 0 0.02 0 0.03C4.3 2.75 2.68 5.16 1.88 5.55 1.59 5.69 1.31 5.68 1.07 5.52 0.93 5.43 0.82 5.28-1.21 2.52c0 0-0.91-1.25-0.92-1.26-0.24-0.29-0.24-0.71-0.01-1.07 0.24-0.37 0.66-0.56 1.03-0.45 0 0-0.01-0.03-0.02-0.03C-0.94-0.23-0.61-0.14 0 0" fill="#bf2519"/></g><g transform="matrix(1.25,0,0,-1.25,448.7125,694.92595)"><path d="m0 0c-0.06 1.5-0.52 8.17-0.57 8.48-0.08 0.28-0.29 0.48-0.61 0.56-0.96 0.24-4.65-0.79-5.34-1.5-0.22-0.23-0.3-0.51-0.23-0.76 0.11-0.22 4.68-7.41 4.68-7.41 0.68-1.09 1.23-0.92 1.41-0.87C-0.49-1.45 0.06-1.28 0 0" fill="#bf2519"/></g><g transform="matrix(1.25,0,0,-1.25,390.21,714.68845)"><path d="M0 0C0.48-0.44 1.38-0.57 2.47-0.34 3.5-0.14 4.14 0.32 4.75 2.27L7.8 11.86C7.96 12.37 7.95 12.81 7.77 13.14 7.62 13.4 7.38 13.58 7.03 13.67 6.49 13.82 5.81 13.81 5.38 12.35L3.78 6.91c0 0-3.26 6.16-3.26 6.17-0.21 0.41-0.81 0.71-1.42 0.46-0.8-0.3-1.07-1.03-0.75-1.95 0 0 3.97-8.08 3.98-8.1 0 0 0.11-0.29 0.11-0.33 0 0 0.04-0.22 0.04-0.23C2.45 2.61 2.35 2.34 2.16 2.17 1.98 2 1.73 1.91 1.43 1.92c0 0-0.62 0.01-0.67 0.01C0.13 1.86-0.27 1.49-0.34 0.93-0.38 0.56-0.26 0.24 0 0" fill="#231f20"/></g><g transform="matrix(1.25,0,0,-1.25,409.75875,703.3197)"><path d="m0 0-4.25 0c-0.11 0.08-0.17 0.23-0.08 0.65 0.05 0.22 0.11 0.42 0.28 0.7 0.06 0.08 0.11 0.17 0.17 0.26 0.31 0.39 0.73 0.65 1.21 0.76C-1.18 2.73-0.14 1.97 0.03 0.68 0.11 0.11 0.06 0 0 0ZM2.61 0.74C2.48 2.13 1.94 3.21 1.06 3.87 0.13 4.58-1.19 4.81-2.76 4.53c-1.96-0.34-3.14-1.74-3.41-4.06-0.33-2.77 0.12-4.86 1.32-6.04 0.9-0.89 2.24-1.25 3.87-1.03 2.32 0.33 3.36 1.6 3.36 2.4 0 0.59-0.36 1.06-0.88 1.13-0.3 0.06-0.56 0-1.12-0.5-0.81-0.71-1.75-0.99-2.58-0.78-0.63 0.16-1.13 0.6-1.35 1.2 0 0-0.1 0.4-0.09 0.35-0.07 0.36-0.1 0.71 0.12 0.86l0.06 0.04 5.09 0c0.47 0 0.71 0.06 0.85 0.21 0.28 0.31 0.26 1.2 0.14 2.44" fill="#231f20"/></g><g transform="matrix(1.25,0,0,-1.25,418.79625,693.2322)"><path d="m0 0c-0.4 0.16-0.86 0.12-1.26-0.12-0.38-0.23-0.54-0.57-0.54-1.2l0-12.15c0 0 0.07-0.43 0.07-0.45 0.09-0.3 0.31-0.56 0.62-0.7 0.35-0.16 0.74-0.16 1.1 0.01 0.44 0.19 0.7 0.64 0.7 1.18l0 12.17c0 0-0.08 0.59-0.08 0.6C0.55-0.37 0.32-0.13 0 0" fill="#231f20"/></g><g transform="matrix(1.25,0,0,-1.25,430.81125,708.65345)"><path d="m0 0c-1.68 0-1.95 1.49-2 2.62 0 0-0.02 0.66-0.02 0.66 0 0 0.02 0.49 0.02 0.51 0.11 1.95 0.51 2.72 1.54 2.93C0.23 6.88 0.75 6.8 1.15 6.48 1.75 6 2.01 4.99 1.98 3.3 1.97 1.32 1.62 0 0 0zm0.13 8.92c-1.13 0.23-2.09 0.04-3.02-0.59 0 0-0.1-0.08-0.14-0.11L-3.12 8.18-3.37 8.06-3.45 8.35-3.51 8.45-3.53 8.52-3.53 8.53c0 0-0.06 0.08-0.07 0.1C-3.87 9.04-4.59 9.23-5.25 8.86-5.57 8.68-5.75 8.43-5.75 7.67l0-11.92c0-0.65 0.21-1.06 0.65-1.27 0.38-0.19 0.8-0.2 1.17-0.05 0.31 0.14 0.54 0.38 0.62 0.67l0.08 0.51 0 2.06-0.02 0.33 0.01 0.1 0.01 0.05 0.12 0.39 0.37-0.25c0 0 0.09-0.06 0.13-0.1l0.11-0.07c0 0 0.13-0.08 0.13-0.08 0 0 0.12-0.06 0.12-0.06 1-0.47 2.34-0.42 3.42 0.14 1.36 0.71 2.03 1.96 2.18 4.07 0.32 4.22-0.65 6.23-3.23 6.73" fill="#231f20"/></g><g transform="matrix(1.25,0,0,-1.25,437.5,709.8197)"><path d="m0 0 0.14 0c0.11 0 0.22 0.01 0.22 0.13 0 0.11-0.1 0.13-0.18 0.13L0 0.26 0 0zm-0.11 0.36 0.3 0c0.2 0 0.29-0.07 0.29-0.23 0-0.15-0.09-0.21-0.21-0.22l0.24-0.36-0.12 0-0.22 0.35-0.14 0 0-0.35-0.11 0L-0.11 0.36zm0.26-1c0.33 0 0.59 0.26 0.59 0.6C0.74 0.3 0.48 0.56 0.15 0.56-0.18 0.56-0.45 0.3-0.45-0.04-0.45-0.38-0.18-0.64 0.15-0.64zm0 1.3c0.38 0 0.71-0.3 0.71-0.7 0-0.4-0.32-0.7-0.71-0.7-0.38 0-0.71 0.3-0.71 0.7 0 0.4 0.32 0.71 0.71 0.71" fill="#231f20"/></g></g></g></svg>