<svg xmlns="http://www.w3.org/2000/svg" viewBox="25 25 350 350">
  <path
     d="m 82,269.35875 230.92875,0 0,23.6425 -230.92875,0 0,-23.6425 z"
     style="fill:#f9dd05"
  />
  <path
     d="m 322.81125,115.36 0,7.735 -1.01875,0 0.14125,-6.485 -2.4425,6.485 -0.79875,0 -2.4,-6.3875 0.11,6.3875 -1.00875,0 0,-7.735 1.325,0 2.3775,6.345 2.39,-6.345 1.325,0 z m -11.9775,4.165 c -1.11875,-0.2325 -2.76,-0.605 -2.76,-2.205 0,-0.76625 0.41375,-1.2475 0.71125,-1.5 0.68875,-0.59 1.535,-0.65625 2.07,-0.65625 0.54875,0 1.38125,0.0537 2.0825,0.56875 0.76875,0.55875 0.9225,1.3475 0.99625,1.82 l -1.04,0.0662 c -0.0125,-0.24125 -0.0437,-0.855 -0.62625,-1.28125 -0.39375,-0.28625 -0.88625,-0.37375 -1.3775,-0.37375 -0.93,0 -1.75125,0.3825 -1.75125,1.215 0,0.855 0.8525,1.0525 1.5225,1.20625 l 0.8525,0.21875 c 0.59125,0.1425 0.9075,0.20875 1.2175,0.34 1.1625,0.48125 1.335,1.41375 1.335,1.9275 0,0.7225 -0.295,1.4025 -0.98625,1.87375 -0.74625,0.5025 -1.6325,0.5475 -2.1025,0.5475 -0.7025,0 -3.1,-0.11125 -3.27625,-2.66125 l 1.10625,-0.14375 c 0.0113,0.2975 0.0463,0.97375 0.62625,1.49 0.435,0.3825 1.0175,0.515 1.5875,0.515 1.0925,0 1.92625,-0.535 1.92625,-1.545 0,-0.89875 -0.71125,-1.14 -1.46625,-1.29375 l -0.6475,-0.12875 z m -25.2425,50.06 c -0.2125,-15.5875 -7.35375,-32.68 -26.9925,-32.68 -19.65125,0 -26.78625,17.0925 -27.00875,32.68 0.2225,15.585 7.3575,32.68125 27.00875,32.68125 19.63875,0 26.78,-17.09625 26.9925,-32.68125 z m -79.19625,-54.03875 26.05,0 0,9.19 0.43375,0 C 240.77375,117.48 252.1875,113 264.995,113 c 27.34625,0 47.93375,25.405 47.93375,56.585 0,28.69625 -16.91625,56.60125 -50.95375,56.60125 -13.64625,0 -24.69625,-4.80875 -29.53,-10.72875 l 0,42.74375 -26.05,0 0,-142.655 z M 157.69125,233.2425 c -7.07,19.83375 -16.38,26.26875 -35.15875,26.26875 -6.41625,0 -12.8225,-1.26 -18.56,-3.5525 l 0,-23.28 c 4.09375,1.65625 10.2825,3.3425 16.49,3.3425 8.33125,0 11.855,-4.235 11.855,-9.635 0,-2.12 -0.78,-4.31875 -2.48625,-8.6675 -1.6825,-4.3625 -40.01625,-102.1725 -40.01625,-102.1725 l 28.42125,0 27.6825,82.10375 0.3525,0 24.57875,-82.10375 27.205,0 -40.36375,117.69625"
     style="fill:#100f0d"
  />
</svg>
